<?xml version="1.0" encoding="UTF-8"?><!DOCTYPE svg PUBLIC "-//W3C//DTD SVG 1.1//EN" "http://www.w3.org/Graphics/SVG/1.1/DTD/svg11.dtd"><svg xmlns="http://www.w3.org/2000/svg" xmlns:xlink="http://www.w3.org/1999/xlink"><symbol id="close-icon-sidemenu" viewBox="0 0 32 32"><path d="M2.666 29.332L29.329 2.669m.003 26.663L2.665 2.669" stroke="#414042" stroke-width="3.556"/></symbol><symbol id="map_marker"><rect width="48" height="48" rx="24" fill="#62554D"/><path fill-rule="evenodd" clip-rule="evenodd" d="M24 39.6c.154 0 .3-.064.401-.177.041-.046.163-.16.35-.336C26.72 37.233 36 28.497 36 20.107 36 13.652 30.617 8.4 24 8.4s-12 5.252-12 11.707c0 8.39 9.28 17.126 11.25 18.98.186.176.308.29.349.336A.539.539 0 0024 39.6zm0-12a7.2 7.2 0 100-14.4 7.2 7.2 0 000 14.4z" fill="#FCFBF9"/></symbol><symbol id="map_marker_active"><rect width="48" height="48" rx="24" fill="#799512"/><path fill-rule="evenodd" clip-rule="evenodd" d="M24 39.6c.154 0 .3-.064.401-.177.041-.046.163-.16.35-.336C26.72 37.233 36 28.497 36 20.107 36 13.652 30.617 8.4 24 8.4s-12 5.252-12 11.707c0 8.39 9.28 17.126 11.25 18.98.186.176.308.29.349.336A.539.539 0 0024 39.6zm0-12a7.2 7.2 0 100-14.4 7.2 7.2 0 000 14.4z" fill="#FCFBF9"/></symbol></svg>