<svg width="24" height="24" viewBox="0 0 24 24" fill="none" xmlns="http://www.w3.org/2000/svg">
<path d="M12 0C12.1143 0 12.2286 0.013102 12.3425 0.0163779C18.8062 0.197626 24 5.49313 24 12.0002C24 18.5072 18.8057 23.8032 12.3425 23.984C12.2282 23.9956 12.1168 24 12 24C11.8832 24 11.7722 23.9949 11.6575 23.984C5.1938 23.8024 0 18.5069 0 12.0002C0 5.49351 5.19427 0.197132 11.6575 0.0163779C11.7718 0.0050957 11.8832 0 12 0ZM12.5219 1.12496V6.78303H16.5653C16.3029 5.79093 15.9732 4.88138 15.587 4.10908C14.7285 2.39154 13.6436 1.37317 12.5219 1.12496ZM11.4785 1.12496C10.3568 1.37318 9.27146 2.39192 8.41336 4.10861C8.02721 4.88129 7.69747 5.79046 7.43506 6.78256H11.4785V1.12449V1.12496ZM15.082 1.49983C15.6304 2.08107 16.1177 2.80461 16.533 3.6359C16.9923 4.55415 17.3726 5.62307 17.6579 6.7826H21.6362C20.2591 4.24515 17.9065 2.32487 15.0815 1.49983H15.082ZM8.9189 1.49983C6.09396 2.32492 3.74177 4.24515 2.36415 6.7826H6.34245C6.62778 5.6227 7.00847 4.55411 7.46739 3.6359C7.88302 2.80499 8.36998 2.08141 8.91843 1.49983H8.9189ZM22.1259 7.82603H17.8702C18.0864 8.97354 18.2174 10.1998 18.245 11.4783H22.9407C22.8792 10.1888 22.5938 8.96013 22.1254 7.82603H22.1259ZM16.8104 7.82603H12.5224V11.4783H17.2021C17.1718 10.188 17.0405 8.96264 16.8108 7.82603H16.8104ZM11.4785 7.82603H7.19049C6.96084 8.96264 6.82945 10.1881 6.79925 11.4783H11.4789V7.82603H11.4785ZM6.13067 7.82603H1.87501C1.40661 8.9605 1.12127 10.1892 1.05976 11.4783H5.75538C5.78304 10.1997 5.91442 8.97317 6.13024 7.82603H6.13067ZM22.9415 12.5217H18.2458C18.2182 13.7992 18.1024 15.0301 17.887 16.174H22.1263C22.5928 15.0391 22.8818 13.8112 22.9415 12.5217ZM17.202 12.5217H12.5223V16.174H16.8103C17.0385 15.0431 17.1717 13.8079 17.2015 12.5217H17.202ZM11.4789 12.5217H6.79917C6.82902 13.808 6.96222 15.0431 7.19042 16.174H11.4784V12.5217H11.4789ZM5.75575 12.5217H1.06013C1.11982 13.8112 1.4088 15.0392 1.87538 16.174H6.11465C5.89919 15.0301 5.78341 13.7992 5.75575 12.5217ZM21.6367 17.2174H17.6584C17.3731 18.3741 16.9924 19.4295 16.5335 20.3482C16.1098 21.1955 15.6116 21.943 15.0496 22.533C17.8946 21.7123 20.2548 19.7716 21.6367 17.2174ZM16.5658 17.2174H12.5224V22.8914C13.6441 22.6399 14.7294 21.5921 15.5875 19.875C15.974 19.1019 16.3034 18.207 16.5658 17.2174ZM11.4785 17.2174H7.43506C7.69747 18.2074 8.02685 19.1023 8.41336 19.875C9.27191 21.5921 10.3568 22.6399 11.4785 22.8914V17.2174ZM6.34245 17.2174H2.36415C3.74606 19.7716 6.10626 21.7122 8.95123 22.533C8.38966 21.943 7.89104 21.1955 7.46739 20.3482C7.00809 19.4299 6.62776 18.3741 6.34245 17.2174Z" fill="#414042"/>
</svg>
