<svg width="24" height="24" viewBox="0 0 24 24" fill="none" xmlns="http://www.w3.org/2000/svg">
<path fill-rule="evenodd" clip-rule="evenodd" d="M11.9998 18C15.3135 18 17.9998 15.3137 17.9998 12C17.9998 8.68628 15.3135 5.99999 11.9998 5.99999C8.6861 5.99999 5.9998 8.68628 5.9998 12C5.9998 15.3137 8.6861 18 11.9998 18ZM11.9998 19.2C15.9763 19.2 19.1998 15.9764 19.1998 12C19.1998 8.02354 15.9763 4.79999 11.9998 4.79999C8.02335 4.79999 4.7998 8.02354 4.7998 12C4.7998 15.9764 8.02335 19.2 11.9998 19.2Z" fill="#414042"/>
<path fill-rule="evenodd" clip-rule="evenodd" d="M13.9331 16.4865C14.5684 15.3975 14.9998 13.8139 14.9998 12C14.9998 10.186 14.5684 8.60249 13.9331 7.51346C13.2807 6.39498 12.5556 5.99999 11.9998 5.99999C11.444 5.99999 10.7189 6.39498 10.0665 7.51346C9.43123 8.60249 8.9998 10.186 8.9998 12C8.9998 13.8139 9.43123 15.3975 10.0665 16.4865C10.7189 17.605 11.444 18 11.9998 18C12.5556 18 13.2807 17.605 13.9331 16.4865ZM11.9998 19.2C14.3194 19.2 16.1998 15.9764 16.1998 12C16.1998 8.02354 14.3194 4.79999 11.9998 4.79999C9.68021 4.79999 7.7998 8.02354 7.7998 12C7.7998 15.9764 9.68021 19.2 11.9998 19.2Z" fill="#414042"/>
<path d="M11.3999 6H12.5999V18H11.3999V6Z" fill="#414042"/>
<path d="M18 9.59998L18 10.8L6 10.8L6 9.59998L18 9.59998Z" fill="#414042"/>
<path d="M18 13.2L18 14.4L6 14.4L6 13.2L18 13.2Z" fill="#414042"/>
</svg>
