<svg width="568" height="100" viewBox="0 0 568 100" fill="none" xmlns="http://www.w3.org/2000/svg">
<path d="M305.907 31.4899C285.765 31.4899 270.568 46.2205 270.568 65.7519C270.568 85.2832 285.765 99.9996 305.907 99.9996C326.093 99.9996 341.319 85.2832 341.319 65.7519C341.319 46.2205 326.093 31.4899 305.907 31.4899ZM305.907 87.5692C293.313 87.5692 284.165 78.3965 284.165 65.7519C284.165 53.1358 293.313 43.9916 305.907 43.9916C318.501 43.9916 327.649 53.1501 327.649 65.7519C327.649 78.3965 318.501 87.5692 305.907 87.5692Z" fill="#414042"/>
<path d="M525.87 0V39.7056C520.3 34.3191 512.839 31.4902 504.128 31.4902C485.019 31.4902 470.636 46.2208 470.636 65.7522C470.636 85.2835 485.033 99.9999 504.128 99.9999C512.825 99.9999 520.285 97.1852 525.87 91.8273V98.6568H539.264V0H525.87ZM505.422 87.5695C493.148 87.5695 484.219 78.3968 484.219 65.7522C484.219 53.1361 493.134 43.9919 505.422 43.9919C517.667 43.9919 526.553 53.1504 526.553 65.7522C526.553 78.3968 517.667 87.5695 505.422 87.5695Z" fill="#414042"/>
<path d="M231.58 31.4902C222.825 31.4902 215.365 34.3049 209.839 39.6485V0H196.503V98.6568H209.839V91.8416C215.365 97.1852 222.825 99.9856 231.58 99.9856C250.675 99.9856 265.087 85.2692 265.087 65.7379C265.073 46.2208 250.675 31.4902 231.58 31.4902ZM230.286 87.5695C218.041 87.5695 209.155 78.3968 209.155 65.7522C209.155 53.1361 218.041 43.9919 230.286 43.9919C242.531 43.9919 251.417 53.1504 251.417 65.7522C251.417 78.3968 242.531 87.5695 230.286 87.5695Z" fill="#414042"/>
<path d="M402.052 32.8329V39.7053C396.482 34.3188 389.022 31.4899 380.31 31.4899C361.216 31.4899 346.818 46.2205 346.818 65.7519C346.818 85.2832 361.216 99.9996 380.31 99.9996C389.007 99.9996 396.468 97.1849 402.052 91.827V98.6565H415.446V32.8329H402.052ZM381.605 87.5692C369.316 87.5692 360.401 78.3965 360.401 65.7519C360.401 53.1358 369.316 43.9916 381.605 43.9916C393.85 43.9916 402.721 53.1501 402.721 65.7519C402.736 78.3965 393.85 87.5692 381.605 87.5692Z" fill="#414042"/>
<path d="M555.755 0.057312C548.818 0.057312 543.422 5.34377 543.422 11.859C543.422 18.3027 548.818 23.6321 555.755 23.6321C562.532 23.6321 568 18.3027 568 11.859C568 5.34377 562.532 0.057312 555.755 0.057312ZM555.755 20.8603C550.577 20.8603 546.564 16.8168 546.564 11.859C546.564 6.8297 550.592 2.82913 555.755 2.82913C560.816 2.82913 564.859 6.84398 564.859 11.859C564.873 16.8311 560.816 20.8603 555.755 20.8603Z" fill="#414042"/>
<path d="M557.513 13.1879C559.694 12.9021 560.93 11.6591 560.93 9.91597C560.93 7.77281 559.331 6.3869 556.481 6.3869H551.29V17.217H553.849V13.245H554.736L558.008 17.217H561.061L557.513 13.1879ZM553.834 11.2304V8.54435H556.423C557.6 8.54435 558.313 9.00156 558.313 9.90168C558.313 10.8161 557.6 11.2304 556.423 11.2304H553.834Z" fill="#414042"/>
<path d="M466.84 46.4063C464.106 44.9775 459.962 44.0488 456.239 44.0488C446.829 44.0488 440.489 51.307 440.489 62.1228V98.6565H427.167V32.8329H440.358V39.2195C444.982 34.2188 451.221 31.4899 458.216 31.4899C463.205 31.4899 466.986 32.1614 470.534 33.6616L471.392 34.0188L468.091 47.0492L466.84 46.4063Z" fill="#414042"/>
<path d="M184.668 0H171.334V98.6568H184.668V0Z" fill="#414042"/>
<path d="M159.977 0H146.657V98.6568H159.977V0Z" fill="#414042"/>
<path d="M128.299 20.2603C123.194 20.2603 119.355 16.5026 119.355 11.5305C119.355 6.52977 123.296 2.60065 128.299 2.60065C133.389 2.60065 137.388 6.51549 137.388 11.5305C137.388 16.4312 133.389 20.2603 128.299 20.2603Z" fill="#414042"/>
<path d="M135.054 32.8326H121.734V98.6562H135.054V32.8326Z" fill="#414042"/>
<path d="M109.552 98.6569H96.1577V61.5803C96.1577 50.4358 90.0788 44.0349 79.4625 44.0349C68.8752 44.0349 61.4729 51.3645 61.4729 61.8517V98.6426H48.0789V61.5803C48.0789 50.4358 41.9999 44.0349 31.3836 44.0349C20.7527 44.0349 13.3213 51.3645 13.3213 61.8517V98.6426H0V32.8333H13.2631V39.2342C19.7056 32.5619 28.4314 31.4903 33.3614 31.4903C43.876 31.4903 52.4854 35.748 57.3136 43.2205C62.2291 35.748 70.9112 31.4903 81.4403 31.4903C98.2519 31.4903 109.552 42.1632 109.552 58.0369V98.6569Z" fill="#414042"/>
</svg>
