<svg width="32" height="32" viewBox="0 0 32 32" fill="none" xmlns="http://www.w3.org/2000/svg">
<g id="Logo / Facebook">
<path id="Initiator" d="M29.3331 15.9998C29.3331 8.63623 23.3636 2.66675 16.0001 2.66675C8.63647 2.66675 2.66699 8.63623 2.66699 15.9998C2.66699 22.2525 6.97197 27.4993 12.7793 28.9404V20.0744H10.03V15.9998H12.7793V14.2441C12.7793 9.70607 14.8331 7.60265 19.2885 7.60265C20.1333 7.60265 21.5909 7.76851 22.1871 7.93384V11.6271C21.8725 11.594 21.3258 11.5775 20.6469 11.5775C18.4608 11.5775 17.616 12.4058 17.616 14.5588V15.9998H21.9711L21.2229 20.0744H17.616V29.2353C24.218 28.438 29.3337 22.8167 29.3337 15.9998H29.3331Z" fill="#799513"/>
</g>
</svg>
