<svg width="40" height="40" viewBox="0 0 40 40" fill="none" xmlns="http://www.w3.org/2000/svg">
<path fill-rule="evenodd" clip-rule="evenodd" d="M16.0717 9.39049C16.5946 9.07677 17.232 9.01871 17.803 9.23282L34 15.3067V23.4335C34 24.136 33.6314 24.7871 33.029 25.1485L23.9283 30.6089C23.4054 30.9226 22.768 30.9807 22.197 30.7666L7.29775 25.1794C6.51715 24.8866 6 24.1404 6 23.3067V15.4335L16.0717 9.39049ZM30.7085 16.2084L17.1007 11.1055L9.29148 15.791L22.8993 20.8939L30.7085 16.2084ZM32 17.7659L23.9283 22.6089C23.4054 22.9227 22.768 22.9807 22.197 22.7666L8 17.4427V23.3067L22.8993 28.8939L32 23.4335V17.7659Z" fill="#414042"/>
</svg>
