<svg width="24" height="24" viewBox="0 0 24 24" fill="none" xmlns="http://www.w3.org/2000/svg">
<path fill-rule="evenodd" clip-rule="evenodd" d="M9.7544 15.7641C10.6439 16.896 11.447 17.7064 12 18.2389C12.553 17.7064 13.3561 16.896 14.2456 15.7641C15.6361 13.9947 16.8 11.922 16.8 10.0535C16.8 7.51637 14.6738 5.40001 12 5.40001C9.32615 5.40001 7.2 7.51637 7.2 10.0535C7.2 11.922 8.36391 13.9947 9.7544 15.7641ZM12 19.8C12.0769 19.8 12.1501 19.7676 12.2007 19.7111C12.2212 19.6882 12.2817 19.6313 12.3752 19.5433L12.3752 19.5433L12.3752 19.5433C13.36 18.6163 18 14.2483 18 10.0535C18 6.82583 15.3084 4.20001 12 4.20001C8.69155 4.20001 6 6.82583 6 10.0535C6 14.2483 10.6401 18.6163 11.6248 19.5433L11.6248 19.5433C11.7183 19.6313 11.7788 19.6882 11.7993 19.7111C11.8499 19.7676 11.9231 19.8 12 19.8ZM14.4 10.2C14.4 11.5255 13.3255 12.6 12 12.6C10.6745 12.6 9.6 11.5255 9.6 10.2C9.6 8.87453 10.6745 7.80001 12 7.80001C13.3255 7.80001 14.4 8.87453 14.4 10.2ZM15.6 10.2C15.6 12.1882 13.9882 13.8 12 13.8C10.0118 13.8 8.4 12.1882 8.4 10.2C8.4 8.21179 10.0118 6.60001 12 6.60001C13.9882 6.60001 15.6 8.21179 15.6 10.2Z" fill="#414042"/>
</svg>
