<svg width="40" height="40" viewBox="0 0 40 40" fill="none" xmlns="http://www.w3.org/2000/svg">
<g id="Icon / Location / Outline">
<path id="OUTLINE" fill-rule="evenodd" clip-rule="evenodd" d="M16.2573 26.2735C17.7399 28.16 19.0784 29.5107 20 30.3982C20.9216 29.5107 22.2601 28.16 23.7427 26.2735C26.0601 23.3245 28 19.87 28 16.7558C28 12.5273 24.4564 9 20 9C15.5436 9 12 12.5273 12 16.7558C12 19.87 13.9399 23.3245 16.2573 26.2735ZM20 33C20.1282 33 20.2501 32.946 20.3345 32.8519C20.3687 32.8137 20.4695 32.7187 20.6253 32.5721L20.6253 32.5721L20.6253 32.5721C22.2666 31.0271 30 23.7472 30 16.7558C30 11.3764 25.5141 7 20 7C14.4859 7 10 11.3764 10 16.7558C10 23.7472 17.7334 31.0271 19.3747 32.5721L19.3747 32.5721C19.5305 32.7187 19.6313 32.8137 19.6655 32.8519C19.7499 32.946 19.8718 33 20 33ZM24 17C24 19.2091 22.2091 21 20 21C17.7909 21 16 19.2091 16 17C16 14.7909 17.7909 13 20 13C22.2091 13 24 14.7909 24 17ZM26 17C26 20.3137 23.3137 23 20 23C16.6863 23 14 20.3137 14 17C14 13.6863 16.6863 11 20 11C23.3137 11 26 13.6863 26 17Z" fill="#414042"/>
</g>
</svg>
