<svg width="24" height="24" viewBox="0 0 24 24" fill="none" xmlns="http://www.w3.org/2000/svg">
<path d="M17.82 16.98L14.58 13.74C15.24 12.9 15.6 11.88 15.6 10.8C15.6 8.16 13.44 6 10.8 6C8.16 6 6 8.16 6 10.8C6 13.44 8.16 15.6 10.8 15.6C11.88 15.6 12.9 15.24 13.74 14.58L16.98 17.82C17.1 17.94 17.28 18 17.4 18C17.52 18 17.7 17.94 17.82 17.82C18.06 17.58 18.06 17.22 17.82 16.98ZM7.2 10.8C7.2 8.82 8.82 7.2 10.8 7.2C12.78 7.2 14.4 8.82 14.4 10.8C14.4 12.78 12.78 14.4 10.8 14.4C8.82 14.4 7.2 12.78 7.2 10.8Z" fill="#414042"/>
</svg>
