<svg width="32" height="32" viewBox="0 0 32 32" fill="none" xmlns="http://www.w3.org/2000/svg">
<path d="M23.76 22.64L19.44 18.32C20.32 17.2 20.8 15.84 20.8 14.4C20.8 10.88 17.92 8 14.4 8C10.88 8 8 10.88 8 14.4C8 17.92 10.88 20.8 14.4 20.8C15.84 20.8 17.2 20.32 18.32 19.44L22.64 23.76C22.8 23.92 23.04 24 23.2 24C23.36 24 23.6 23.92 23.76 23.76C24.08 23.44 24.08 22.96 23.76 22.64ZM9.6 14.4C9.6 11.76 11.76 9.6 14.4 9.6C17.04 9.6 19.2 11.76 19.2 14.4C19.2 17.04 17.04 19.2 14.4 19.2C11.76 19.2 9.6 17.04 9.6 14.4Z" fill="#414042"/>
</svg>
