<svg width="32" height="32" viewBox="0 0 32 32" fill="none" xmlns="http://www.w3.org/2000/svg">
<g id="Logo / Instagram">
<path id="Instagram" d="M10.4783 2.76C9.05961 2.82693 8.0908 3.05333 7.24386 3.38613C6.36732 3.72774 5.62438 4.18614 4.88517 4.92801C4.14596 5.66988 3.69076 6.41334 3.35155 7.29121C3.02328 8.14002 2.80088 9.10962 2.73821 10.5291C2.67555 11.9486 2.66168 12.4048 2.66861 16.0256C2.67555 19.6465 2.69155 20.1003 2.76035 21.5227C2.82808 22.9411 3.05368 23.9097 3.38649 24.7569C3.72862 25.6334 4.1865 26.3761 4.92864 27.1156C5.67078 27.855 6.41372 28.3092 7.29373 28.6489C8.14174 28.9766 9.11161 29.2001 10.5308 29.2622C11.95 29.3244 12.4068 29.3388 16.0266 29.3318C19.6464 29.3249 20.1021 29.3089 21.5243 29.2414C22.9464 29.174 23.9099 28.9468 24.7574 28.6156C25.6339 28.2726 26.3771 27.8156 27.1161 27.0732C27.855 26.3307 28.3099 25.5867 28.6489 24.7083C28.9774 23.8603 29.2006 22.8905 29.2622 21.4723C29.3244 20.0491 29.339 19.5947 29.3321 15.9744C29.3251 12.3542 29.3089 11.9003 29.2414 10.4784C29.174 9.05655 28.9481 8.09095 28.6155 7.24321C28.2729 6.36668 27.8155 5.62454 27.0737 4.88454C26.3318 4.14454 25.5872 3.68987 24.7091 3.35173C23.8606 3.02347 22.8912 2.79973 21.472 2.7384C20.0528 2.67706 19.596 2.66133 15.9749 2.66826C12.3538 2.6752 11.9004 2.69066 10.4783 2.76ZM10.634 26.8636C9.33402 26.807 8.62814 26.591 8.15774 26.4102C7.5348 26.1702 7.09106 25.8801 6.62225 25.4158C6.15345 24.9515 5.86545 24.5062 5.62224 23.8846C5.43958 23.4142 5.21957 22.7091 5.15877 21.4091C5.09264 20.0041 5.07877 19.5822 5.07104 16.0224C5.0633 12.4627 5.07691 12.0414 5.13851 10.6358C5.19397 9.33682 5.41131 8.63015 5.59184 8.16002C5.83185 7.53628 6.12092 7.09335 6.58625 6.62481C7.05159 6.15628 7.4956 5.86774 8.11774 5.62454C8.58761 5.44107 9.29268 5.22294 10.5922 5.16107C11.9983 5.09441 12.4196 5.08107 15.9789 5.07334C19.5381 5.06561 19.9605 5.07894 21.3672 5.14081C22.6661 5.19734 23.3731 5.41254 23.8427 5.59414C24.4659 5.83414 24.9094 6.12241 25.3779 6.58855C25.8464 7.05468 26.1353 7.49708 26.3785 8.12055C26.5622 8.58909 26.7803 9.29389 26.8417 10.5942C26.9086 12.0003 26.9238 12.4219 26.9302 15.9808C26.9366 19.5398 26.9241 19.9625 26.8625 21.3675C26.8057 22.6675 26.5902 23.3737 26.4091 23.8446C26.1691 24.4673 25.8798 24.9113 25.4142 25.3795C24.9486 25.8478 24.5051 26.1363 23.8827 26.3795C23.4134 26.5627 22.7075 26.7814 21.4091 26.8433C20.0029 26.9094 19.5816 26.9233 16.021 26.931C12.4604 26.9387 12.0404 26.9244 10.6343 26.8636M21.5037 8.87389C21.5043 9.19036 21.5986 9.49957 21.7749 9.76241C21.9512 10.0252 22.2014 10.2299 22.494 10.3505C22.7866 10.4711 23.1084 10.5022 23.4187 10.4399C23.729 10.3776 24.0138 10.2247 24.2372 10.0005C24.4606 9.77633 24.6124 9.49093 24.6736 9.18042C24.7348 8.86991 24.7025 8.54824 24.5808 8.25609C24.4591 7.96394 24.2536 7.71443 23.9901 7.53912C23.7266 7.36382 23.417 7.27058 23.1006 7.27121C22.6763 7.27206 22.2697 7.44137 21.9703 7.74192C21.6709 8.04246 21.503 8.44963 21.5037 8.87389ZM9.15428 16.0134C9.16175 19.7947 12.2327 22.8531 16.0133 22.8459C19.7939 22.8387 22.8544 19.7681 22.8472 15.9867C22.84 12.2054 19.7683 9.14615 15.9871 9.15362C12.206 9.16109 9.14708 12.2326 9.15428 16.0134ZM11.5559 16.0086C11.5542 15.1295 11.8131 14.2697 12.3001 13.5378C12.787 12.806 13.48 12.2349 14.2915 11.8969C15.103 11.5589 15.9964 11.4691 16.8589 11.6389C17.7214 11.8087 18.5142 12.2305 19.137 12.8508C19.7598 13.4711 20.1847 14.2623 20.3579 15.1241C20.5311 15.9859 20.4449 16.8797 20.1101 17.6925C19.7753 18.5053 19.207 19.2006 18.4771 19.6904C17.7471 20.1802 16.8883 20.4426 16.0093 20.4443C15.4256 20.4456 14.8474 20.3318 14.3077 20.1095C13.7679 19.8873 13.2773 19.5608 12.8638 19.1489C12.4502 18.737 12.1219 18.2477 11.8975 17.7088C11.673 17.17 11.557 16.5923 11.5559 16.0086Z" fill="#799513"/>
</g>
</svg>
