<svg width="8" height="12" viewBox="0 0 8 12" fill="none" xmlns="http://www.w3.org/2000/svg">
<path d="M4 10.5752C3.64666 10.2404 2.98097 9.60328 2.26705 8.69482C1.33262 7.50575 0.5 6.05505 0.5 4.70236C0.5 2.83832 2.05878 1.30005 4 1.30005C5.94122 1.30005 7.5 2.83832 7.5 4.70236C7.5 6.05505 6.66738 7.50575 5.73295 8.69482C5.01903 9.60328 4.35334 10.2404 4 10.5752Z" stroke="#414042"/>
<path fill-rule="evenodd" clip-rule="evenodd" d="M4.13379 11.1408C4.10004 11.1785 4.05128 11.2 4 11.2C3.94872 11.2 3.89996 11.1785 3.86621 11.1408C3.85253 11.1255 3.81218 11.0875 3.74987 11.0289C3.09338 10.4109 0 7.49893 0 4.70236C0 2.55059 1.79437 0.800049 4 0.800049C6.20563 0.800049 8 2.55059 8 4.70236C8 7.49893 4.90662 10.4109 4.25013 11.0289C4.18782 11.0875 4.14747 11.1255 4.13379 11.1408ZM3.99844 7.19932C5.32392 7.19932 6.39844 6.1248 6.39844 4.79932C6.39844 3.47384 5.32392 2.39932 3.99844 2.39932C2.67295 2.39932 1.59844 3.47384 1.59844 4.79932C1.59844 6.1248 2.67295 7.19932 3.99844 7.19932Z" fill="#414042"/>
</svg>
