<svg width="192" height="34" viewBox="0 0 192 34" fill="none" xmlns="http://www.w3.org/2000/svg">
<path d="M103.406 10.7065C96.5971 10.7065 91.46 15.715 91.46 22.3556C91.46 28.9963 96.5971 33.9998 103.406 33.9998C110.229 33.9998 115.376 28.9963 115.376 22.3556C115.376 15.715 110.229 10.7065 103.406 10.7065ZM103.406 29.7735C99.1485 29.7735 96.0563 26.6548 96.0563 22.3556C96.0563 18.0662 99.1485 14.9571 103.406 14.9571C107.663 14.9571 110.755 18.071 110.755 22.3556C110.755 26.6548 107.663 29.7735 103.406 29.7735Z" fill="#414042"/>
<path d="M177.759 0V13.4999C175.876 11.6685 173.354 10.7067 170.409 10.7067C163.95 10.7067 159.088 15.7151 159.088 22.3557C159.088 28.9964 163.955 34 170.409 34C173.349 34 175.871 33.043 177.759 31.2213V33.5433H182.286V0H177.759ZM170.847 29.7736C166.698 29.7736 163.679 26.6549 163.679 22.3557C163.679 18.0663 166.693 14.9573 170.847 14.9573C174.986 14.9573 177.99 18.0711 177.99 22.3557C177.99 26.6549 174.986 29.7736 170.847 29.7736Z" fill="#414042"/>
<path d="M78.281 10.7067C75.3216 10.7067 72.7998 11.6637 70.9317 13.4805V0H66.4238V33.5433H70.9317V31.2261C72.7998 33.043 75.3216 33.9951 78.281 33.9951C84.7356 33.9951 89.6073 28.9915 89.6073 22.3509C89.6024 15.7151 84.7356 10.7067 78.281 10.7067ZM77.8435 29.7736C73.7043 29.7736 70.7007 26.6549 70.7007 22.3557C70.7007 18.0663 73.7043 14.9573 77.8435 14.9573C81.9827 14.9573 84.9863 18.0711 84.9863 22.3557C84.9863 26.6549 81.9827 29.7736 77.8435 29.7736Z" fill="#414042"/>
<path d="M135.905 11.1632V13.4998C134.022 11.6684 131.5 10.7065 128.556 10.7065C122.101 10.7065 117.234 15.715 117.234 22.3556C117.234 28.9963 122.101 33.9998 128.556 33.9998C131.495 33.9998 134.017 33.0428 135.905 31.2212V33.5432H140.433V11.1632H135.905ZM128.993 29.7735C124.839 29.7735 121.826 26.6548 121.826 22.3556C121.826 18.0662 124.839 14.9571 128.993 14.9571C133.132 14.9571 136.131 18.071 136.131 22.3556C136.136 26.6548 133.132 29.7735 128.993 29.7735Z" fill="#414042"/>
<path d="M187.861 0.0195312C185.516 0.0195312 183.692 1.81693 183.692 4.0321C183.692 6.22298 185.516 8.03495 187.861 8.03495C190.152 8.03495 192 6.22298 192 4.0321C192 1.81693 190.152 0.0195312 187.861 0.0195312ZM187.861 7.09253C186.111 7.09253 184.754 5.71777 184.754 4.0321C184.754 2.32214 186.116 0.96195 187.861 0.96195C189.572 0.96195 190.938 2.327 190.938 4.0321C190.943 5.72262 189.572 7.09253 187.861 7.09253Z" fill="#414042"/>
<path d="M188.455 4.48396C189.193 4.3868 189.61 3.96417 189.61 3.37151C189.61 2.64284 189.07 2.17163 188.106 2.17163H186.352V5.85387H187.217V4.50339H187.516L188.622 5.85387H189.655L188.455 4.48396ZM187.212 3.81843V2.90516H188.087C188.485 2.90516 188.726 3.06061 188.726 3.36666C188.726 3.67756 188.485 3.81843 188.087 3.81843H187.212Z" fill="#414042"/>
<path d="M157.805 15.7781C156.881 15.2923 155.48 14.9766 154.221 14.9766C151.041 14.9766 148.898 17.4444 148.898 21.1217V33.5432H144.395V11.1632H148.853V13.3346C150.417 11.6344 152.525 10.7065 154.89 10.7065C156.576 10.7065 157.854 10.9349 159.054 11.4449L159.344 11.5664L158.228 15.9967L157.805 15.7781Z" fill="#414042"/>
<path d="M62.4234 0H57.916V33.5433H62.4234V0Z" fill="#414042"/>
<path d="M54.0767 0H49.5742V33.5433H54.0767V0Z" fill="#414042"/>
<path d="M43.369 6.88856C41.6435 6.88856 40.3457 5.61095 40.3457 3.92042C40.3457 2.22018 41.6779 0.884277 43.369 0.884277C45.0896 0.884277 46.4414 2.21532 46.4414 3.92042C46.4414 5.58666 45.0896 6.88856 43.369 6.88856Z" fill="#414042"/>
<path d="M45.6518 11.1631H41.1494V33.5431H45.6518V11.1631Z" fill="#414042"/>
<path d="M37.0316 33.5434H32.504V20.9374C32.504 17.1483 30.4492 14.972 26.8605 14.972C23.2818 14.972 20.7796 17.464 20.7796 21.0297V33.5386H16.252V20.9374C16.252 17.1483 14.1972 14.972 10.6085 14.972C7.01501 14.972 4.50298 17.464 4.50298 21.0297V33.5386H0V11.1634H4.48331V13.3397C6.66106 11.0711 9.61061 10.7068 11.2771 10.7068C14.8313 10.7068 17.7415 12.1544 19.3736 14.6951C21.0352 12.1544 23.97 10.7068 27.5291 10.7068C33.2119 10.7068 37.0316 14.3356 37.0316 19.7326V33.5434Z" fill="#414042"/>
</svg>
