<svg width="40" height="40" viewBox="0 0 40 40" fill="none" xmlns="http://www.w3.org/2000/svg">
<path fill-rule="evenodd" clip-rule="evenodd" d="M10 6H30C31.6569 6 33 7.34314 33 9V31C33 32.6569 31.6569 34 30 34H10C8.34315 34 7 32.6569 7 31V9C7 7.34315 8.34314 6 10 6ZM10 8C9.44772 8 9 8.44772 9 9V31C9 31.5523 9.44772 32 10 32H30C30.5523 32 31 31.5523 31 31V9C31 8.44772 30.5523 8 30 8H10Z" fill="#414042"/>
<path d="M18.6562 11.293H20.6562V27.293H18.6562V11.293Z" fill="#414042"/>
<path fill-rule="evenodd" clip-rule="evenodd" d="M18.2427 27.606L13.293 22.6562L14.7072 21.242L19.6569 26.1918L24.6067 21.242L26.0209 22.6562L21.0711 27.606C20.2901 28.387 19.0238 28.387 18.2427 27.606Z" fill="#414042"/>
</svg>
