<svg width="32" height="32" viewBox="0 0 32 32" fill="none" xmlns="http://www.w3.org/2000/svg">
<g id="Logo / Pinterest">
<path id="Pintereste" d="M15.9948 2.66675C8.62339 2.66675 2.66699 8.63411 2.66699 15.9946C2.66699 21.6438 6.17721 26.4704 11.1354 28.412C11.0147 27.3589 10.916 25.7354 11.1793 24.5837C11.4206 23.5415 12.7369 17.9581 12.7369 17.9581C12.7369 17.9581 12.342 17.1574 12.342 15.9836C12.342 14.1298 13.417 12.7477 14.7553 12.7477C15.8961 12.7477 16.4446 13.6033 16.4446 14.6234C16.4446 15.7642 15.7206 17.4755 15.3367 19.066C15.0186 20.3933 16.0058 21.4793 17.3112 21.4793C19.6806 21.4793 21.5015 18.9783 21.5015 15.3803C21.5015 12.1882 19.2089 9.96141 15.929 9.96141C12.1336 9.96141 9.90681 12.8025 9.90681 15.7423C9.90681 16.8831 10.3456 18.1117 10.8941 18.7808C11.0038 18.9125 11.0147 19.0331 10.9818 19.1647C10.8831 19.5816 10.6527 20.4921 10.6089 20.6785C10.554 20.9199 10.4114 20.9747 10.1591 20.8541C8.51369 20.0642 7.48257 17.629 7.48257 15.6765C7.48257 11.4752 10.5321 7.61395 16.291 7.61395C20.9092 7.61395 24.5071 10.9048 24.5071 15.3145C24.5071 19.9107 21.6112 23.6074 17.5964 23.6074C16.2471 23.6074 14.9747 22.9053 14.5469 22.0717C14.5469 22.0717 13.8777 24.6166 13.7132 25.2418C13.417 26.4046 12.6053 27.8525 12.0568 28.7411C13.3073 29.125 14.6237 29.3334 16.0058 29.3334C23.3663 29.3334 29.3337 23.3661 29.3337 16.0056C29.3227 8.63411 23.3553 2.66675 15.9948 2.66675Z" fill="#62554D"/>
</g>
</svg>
