<svg width="32" height="32" viewBox="0 0 32 32" fill="none" xmlns="http://www.w3.org/2000/svg">
<g id="Logo / YouTube">
<path id="Youtube BG" d="M28.7761 9.60008C28.47 8.44554 27.5655 7.53645 26.4185 7.22735C24.3382 6.66675 16.0003 6.66675 16.0003 6.66675C16.0003 6.66675 7.66093 6.66675 5.58214 7.22735C4.43517 7.53645 3.53063 8.44554 3.22457 9.60008C2.66699 11.6925 2.66699 16.0607 2.66699 16.0607C2.66699 16.0607 2.66699 20.4274 3.22457 22.5213C3.53063 23.6758 4.43517 24.5849 5.58214 24.894C7.66245 25.4546 16.0003 25.4546 16.0003 25.4546C16.0003 25.4546 24.3397 25.4546 26.4185 24.894C27.5655 24.5849 28.47 23.6758 28.7761 22.5213C29.3337 20.4289 29.3337 16.0607 29.3337 16.0607C29.3337 16.0607 29.3337 11.694 28.7761 9.60008Z" fill="#62554D"/>
<path id="Youtube Play" d="M13.2725 20.0258V12.0955L20.2422 16.0606L13.2725 20.0258Z" fill="#FCFBF8"/>
</g>
</svg>
