<?xml version="1.0" encoding="UTF-8"?>
<svg version="1.1" xmlns="http://www.w3.org/2000/svg" width="512" height="512">
<path d="M0 0 C4.66318765 2.16505141 7.94060848 5.25423736 10 10 C10.58421742 13.68324176 10.54674061 17.32458479 10.51898193 21.04769897 C10.53023381 22.72147816 10.53023381 22.72147816 10.541713 24.42907107 C10.56201893 28.16953677 10.55388134 31.90939798 10.54589844 35.64990234 C10.55463186 38.33057878 10.56494154 41.01120594 10.57722473 43.69186401 C10.60052941 49.46382669 10.60928561 55.23566375 10.60811615 61.00767136 C10.60644642 69.35295849 10.62678662 77.69807825 10.65247145 86.04332073 C10.69354836 99.58339707 10.71686432 113.12344329 10.72900391 126.66357422 C10.74083331 139.81529638 10.7610318 152.96696183 10.79248047 166.11865234 C10.79538462 167.33498203 10.79538462 167.33498203 10.79834744 168.57588403 C10.80811206 172.64392794 10.81804117 176.71197144 10.82805204 180.78001475 C10.91086858 214.51998528 10.96485783 248.25994629 11 282 C12.22759033 280.87198975 12.22759033 280.87198975 13.47998047 279.72119141 C14.56736182 278.7229589 15.65476534 277.72475054 16.7421875 276.7265625 C17.27996826 276.2322876 17.81774902 275.7380127 18.37182617 275.22875977 C21.87393104 272.01515782 25.41681721 268.85637014 29.0078125 265.7421875 C31.36020635 263.68499601 33.68034966 261.59403085 36 259.5 C39.61676345 256.23609152 43.26389608 253.01209051 46.9375 249.8125 C49.30964429 247.72788836 51.65556065 245.61571356 54 243.5 C57.61676345 240.23609152 61.26389608 237.01209051 64.9375 233.8125 C67.30964429 231.72788836 69.65556065 229.61571356 72 227.5 C75.61676345 224.23609152 79.26389608 221.01209051 82.9375 217.8125 C85.30964429 215.72788836 87.65556065 213.61571356 90 211.5 C93.61676345 208.23609152 97.26389608 205.01209051 100.9375 201.8125 C103.30964429 199.72788836 105.65556065 197.61571356 108 195.5 C130.0868202 175.60500165 130.0868202 175.60500165 141.015625 175.72265625 C146.37049732 176.22029491 148.81340277 178.75095028 152.375 182.5 C154.72325726 187.55778486 154.97097307 192.51685793 154 198 C151.25748563 203.06566369 147.47770072 206.63460298 143.25 210.4375 C142.31075684 211.29553223 142.31075684 211.29553223 141.35253906 212.17089844 C137.58366839 215.60371636 133.78089646 218.99683297 129.921875 222.328125 C127.58894926 224.35758073 125.29488755 226.427647 123 228.5 C119.38323655 231.76390848 115.73610392 234.98790949 112.0625 238.1875 C109.69035571 240.27211164 107.34443935 242.38428644 105 244.5 C101.38323655 247.76390848 97.73610392 250.98790949 94.0625 254.1875 C91.69035571 256.27211164 89.34443935 258.38428644 87 260.5 C83.38323655 263.76390848 79.73610392 266.98790949 76.0625 270.1875 C73.69035571 272.27211164 71.34443935 274.38428644 69 276.5 C65.38323655 279.76390848 61.73610392 282.98790949 58.0625 286.1875 C55.69035571 288.27211164 53.34443935 290.38428644 51 292.5 C47.38323655 295.76390848 43.73610392 298.98790949 40.0625 302.1875 C37.69035571 304.27211164 35.34443935 306.38428644 33 308.5 C29.38384777 311.76335689 25.73917444 314.98874156 22.0625 318.18359375 C19.68116284 320.28079409 17.3432484 322.42285703 15 324.5625 C2.19252535 336.12480351 2.19252535 336.12480351 -5.75 336.3125 C-6.77609375 336.34988281 -7.8021875 336.38726562 -8.859375 336.42578125 C-15.15778896 335.5718918 -19.40988457 330.90642593 -23.875 326.6875 C-24.93165371 325.70374141 -25.98894544 324.72066767 -27.046875 323.73828125 C-27.55412109 323.26600098 -28.06136719 322.7937207 -28.58398438 322.30712891 C-31.01238909 320.06546014 -33.51131526 317.90719963 -36.0078125 315.7421875 C-38.36020635 313.68499601 -40.68034966 311.59403085 -43 309.5 C-45.98062721 306.81016569 -48.97245233 304.13689636 -52 301.5 C-55.89512811 298.10746907 -59.72782763 294.64805799 -63.5625 291.1875 C-65.69417481 289.27445851 -67.8401911 287.38112388 -70 285.5 C-73.02754767 282.86310364 -76.01937279 280.18983431 -79 277.5 C-84.32334693 272.70092208 -89.68863339 267.9592205 -95.15234375 263.3203125 C-101.73318179 257.72558261 -108.19765898 252.04264888 -114.51953125 246.15625 C-117.97369374 242.94030561 -121.47435592 239.79482045 -125.04296875 236.70703125 C-127.3855915 234.66366569 -129.69273422 232.58319141 -132 230.5 C-134.98062721 227.81016569 -137.97245233 225.13689636 -141 222.5 C-144.88743197 219.11417216 -148.71482893 215.66437687 -152.53515625 212.203125 C-155.40562104 209.63744808 -158.34144856 207.15613021 -161.30859375 204.703125 C-165.15871796 200.82632556 -166.43050939 197.49420111 -166.4375 192.0625 C-166.24716072 185.31786899 -164.3537086 182.23602317 -159.5 177.625 C-154.44221514 175.27674274 -149.48314207 175.02902693 -144 176 C-139.72061951 178.43671666 -136.21907957 181.46610627 -132.625 184.8125 C-129.42528865 187.76607971 -126.22579474 190.70775325 -122.9375 193.5625 C-119.92926472 196.17701942 -116.95869751 198.82951656 -114 201.5 C-111.01937279 204.18983431 -108.02754767 206.86310364 -105 209.5 C-101.10487189 212.89253093 -97.27217237 216.35194201 -93.4375 219.8125 C-91.30582519 221.72554149 -89.1598089 223.61887612 -87 225.5 C-83.10487189 228.89253093 -79.27217237 232.35194201 -75.4375 235.8125 C-73.30582519 237.72554149 -71.1598089 239.61887612 -69 241.5 C-65.10487189 244.89253093 -61.27217237 248.35194201 -57.4375 251.8125 C-55.30582519 253.72554149 -53.1598089 255.61887612 -51 257.5 C-47.97245233 260.13689636 -44.98062721 262.81016569 -42 265.5 C-35.76448577 271.12343922 -29.45347509 276.62904331 -23 282 C-22.99910437 281.14010186 -22.99910437 281.14010186 -22.99819064 280.26283205 C-22.96230323 246.29276386 -22.90567437 212.32279842 -22.82207905 178.35281446 C-22.81206149 174.27476078 -22.80221738 170.1967067 -22.79248047 166.11865234 C-22.78956841 164.90084231 -22.78956841 164.90084231 -22.78659752 163.65843005 C-22.75556933 150.50957272 -22.73859459 137.36073285 -22.72680578 124.2118458 C-22.71439845 110.72167894 -22.68690655 97.23160376 -22.64538693 83.74149477 C-22.62023948 75.41613831 -22.60688362 67.09093387 -22.60857043 58.76553889 C-22.60860016 53.05789583 -22.59398874 47.35040773 -22.56783572 41.64282505 C-22.55317562 38.3488826 -22.54716738 35.05532238 -22.55419731 31.76134491 C-22.56080561 28.18978786 -22.54299088 24.61916221 -22.51898193 21.04769897 C-22.52674235 20.00683809 -22.53450277 18.9659772 -22.54249835 17.89357507 C-22.47133092 11.92898682 -21.93967327 8.55950779 -18 4 C-12.72867143 -1.00776214 -6.89190982 -0.92775709 0 0 Z " fill="#000000" transform="translate(262,48)"/>
<path d="M0 0 C0.67372147 -0.00581376 1.34744293 -0.01162753 2.0415802 -0.01761746 C4.29769864 -0.03220815 6.55272751 -0.01833775 8.80883789 -0.00457001 C10.44316667 -0.00917932 12.0774913 -0.01553244 13.71180725 -0.02347898 C18.20180347 -0.04019136 22.69146001 -0.03191731 27.18145752 -0.01953411 C32.02407137 -0.01049375 36.86662632 -0.02444831 41.70922852 -0.0354538 C51.19547698 -0.05325443 60.68159895 -0.04939215 70.1678524 -0.03780323 C77.87647923 -0.02877527 85.58507057 -0.02754215 93.29370117 -0.0318985 C94.39019895 -0.03251143 95.48669672 -0.03312436 96.6164217 -0.03375587 C98.84383012 -0.03503475 101.07123853 -0.0363316 103.29864693 -0.03764623 C124.19251875 -0.04905656 145.08632042 -0.03593122 165.98018074 -0.01444477 C183.91398702 0.00342661 201.84768973 0.00032263 219.78149414 -0.01811981 C240.59982509 -0.03951852 261.41809452 -0.04795788 282.23643494 -0.03567076 C284.45571898 -0.03439654 286.67500304 -0.03313906 288.89428711 -0.0318985 C289.98626058 -0.0312814 291.07823404 -0.03066429 292.20329762 -0.03002849 C299.90402005 -0.0265726 307.60470352 -0.0324091 315.30541992 -0.04181671 C324.68809716 -0.05302696 334.07064051 -0.05001714 343.45330238 -0.02869374 C348.24189245 -0.01817023 353.03025917 -0.01408365 357.81884766 -0.02729034 C362.2008803 -0.03919313 366.58248217 -0.03268673 370.96447563 -0.01138014 C372.55119843 -0.00690509 374.13795749 -0.00920057 375.72465706 -0.01888329 C377.87962005 -0.03102691 380.03310282 -0.01859521 382.18798828 0 C383.38541153 0.00064941 384.58283478 0.00129882 385.81654358 0.00196791 C390.91119161 0.78136623 393.98388865 3.33483247 397.46899414 7.00336456 C399.86702989 12.16836465 399.84780949 16.90359336 399.09399414 22.50336456 C396.78330437 27.48023484 393.80811455 29.81086951 389.09399414 32.50336456 C385.81654358 33.00476122 385.81654358 33.00476122 382.18798828 33.00672913 C381.51426682 33.01254289 380.84054535 33.01835665 380.14640808 33.02434659 C377.89028964 33.03893727 375.63526077 33.02506688 373.37915039 33.01129913 C371.74482162 33.01590845 370.11049699 33.02226157 368.47618103 33.03020811 C363.98618481 33.04692049 359.49652827 33.03864643 355.00653076 33.02626324 C350.16391691 33.01722287 345.32136196 33.03117744 340.47875977 33.04218292 C330.9925113 33.05998356 321.50638933 33.05612127 312.02013588 33.04453236 C304.31150905 33.03550439 296.60291771 33.03427128 288.89428711 33.03862762 C287.24954045 33.03954702 287.24954045 33.03954702 285.57156658 33.04048499 C283.34415816 33.04176388 281.11674975 33.04306073 278.88934135 33.04437536 C257.99546953 33.05578568 237.10166786 33.04266035 216.20780754 33.02117389 C198.27400126 33.00330251 180.34029855 33.00640649 162.40649414 33.02484894 C141.58816319 33.04624765 120.76989376 33.05468701 99.95155334 33.04239988 C97.7322693 33.04112567 95.51298524 33.03986818 93.29370117 33.03862762 C92.20172771 33.03801052 91.10975424 33.03739342 89.98469067 33.03675762 C82.28396823 33.03330172 74.58328476 33.03913823 66.88256836 33.04854584 C57.49989112 33.05975609 48.11734777 33.05674626 38.7346859 33.03542286 C33.94609583 33.02489935 29.15772911 33.02081278 24.36914062 33.03401947 C19.98710798 33.04592226 15.60550611 33.03941585 11.22351265 33.01810926 C9.63678985 33.01363421 8.05003079 33.0159297 6.46333122 33.02561241 C4.30836823 33.03775604 2.15488546 33.02532434 0 33.00672913 C-1.19742325 33.00607972 -2.3948465 33.00543031 -3.6285553 33.00476122 C-8.72320333 32.22536289 -11.79590037 29.67189665 -15.28100586 26.00336456 C-17.67904161 20.83836448 -17.65982121 16.10313576 -16.90600586 10.50336456 C-13.49255297 3.15131218 -7.9695115 0.00432218 0 0 Z " fill="#000000" transform="translate(64.906005859375,431.4966354370117)"/>
</svg>
