<svg width="48" height="48" viewBox="0 0 48 48" fill="none" xmlns="http://www.w3.org/2000/svg">
<rect width="48" height="48" rx="24" fill="#799512"/>
<path fill-rule="evenodd" clip-rule="evenodd" d="M24 39.6004C24.1538 39.6004 24.3001 39.5356 24.4014 39.4226C24.4424 39.3768 24.5635 39.2629 24.7503 39.087L24.7504 39.0869L24.7504 39.0869C26.7199 37.2329 36 28.497 36 20.1073C36 13.652 30.6169 8.40039 24 8.40039C17.3831 8.40039 12 13.652 12 20.1073C12 28.497 21.2801 37.2329 23.2496 39.0869L23.2497 39.087C23.4365 39.2629 23.5576 39.3768 23.5986 39.4226C23.6999 39.5356 23.8462 39.6004 24 39.6004ZM24 27.6004C27.9765 27.6004 31.2 24.3768 31.2 20.4004C31.2 16.4239 27.9765 13.2004 24 13.2004C20.0236 13.2004 16.8 16.4239 16.8 20.4004C16.8 24.3768 20.0236 27.6004 24 27.6004Z" fill="#FCFBF9"/>
</svg>