<svg width="288" height="100" viewBox="0 0 288 100" fill="none" xmlns="http://www.w3.org/2000/svg">
<g clip-path="url(#clip0_1888_23816)">
<path d="M39.3912 44.3942H9.8252C10.428 46.8355 11.6637 48.7945 13.5322 50.2713C15.4008 51.7481 17.7818 52.4714 20.6148 52.4714C24.8041 52.4714 27.9988 51.0247 30.1688 48.1314L37.0404 53.6167C35.2923 56.1182 32.9717 58.0772 30.0482 59.4636C27.1248 60.8499 24.0205 61.5431 20.6751 61.5431C14.8583 61.5431 9.94575 59.6143 5.96745 55.7264C1.98915 51.8686 0 47.0766 0 41.4105C0 35.7445 1.83846 30.8319 5.54551 26.8536C9.25256 22.8753 14.1049 20.8861 20.1025 20.8861C25.7083 20.8861 30.3797 22.8753 34.0868 26.8536C37.7939 30.8319 39.6323 35.5938 39.6323 41.1694C39.6323 42.3147 39.5419 43.3695 39.3912 44.3641M10.1266 37.0404H29.5057C29.2345 35.0814 28.1796 33.4238 26.3713 32.0977C24.563 30.7716 22.4231 30.1085 20.0422 30.1085C17.6612 30.1085 15.7324 30.7414 13.9542 31.9771C12.176 33.2429 10.9102 34.9307 10.1567 37.0404" fill="#414042"/>
<path d="M84.7799 60.4883H74.7136V39.7228C74.7136 33.6348 72.0312 30.5606 66.6967 30.5606C61.3622 30.5606 58.6798 33.5444 58.6798 39.542V60.4582H48.6135V21.6697H58.6798V24.5329C61.9047 22.1218 65.3103 20.9464 68.8968 20.9464C73.5382 20.9464 77.3356 22.3629 80.2892 25.196C83.2428 28.029 84.7498 32.3388 84.7498 38.1254V60.5184L84.7799 60.4883Z" fill="#414042"/>
<path d="M117.059 60.4882H106.51L90.8982 21.6697H101.869L111.754 47.9807L121.73 21.6697H132.67L117.059 60.4882Z" fill="#414042"/>
<path d="M175.769 44.3942H146.172C146.775 46.8355 148.011 48.7945 149.879 50.2713C151.748 51.7481 154.129 52.4714 156.962 52.4714C161.151 52.4714 164.346 51.0247 166.516 48.1314L173.388 53.6167C171.64 56.1182 169.319 58.0772 166.395 59.4636C163.472 60.8499 160.368 61.5431 157.022 61.5431C151.206 61.5431 146.293 59.6143 142.315 55.7264C138.336 51.8686 136.347 47.0766 136.347 41.4105C136.347 35.7445 138.186 30.8319 141.893 26.8536C145.6 22.8753 150.452 20.8861 156.45 20.8861C162.055 20.8861 166.727 22.8753 170.434 26.8536C174.141 30.8319 175.979 35.5938 175.979 41.1694C175.979 42.3147 175.889 43.3695 175.738 44.3641M146.474 37.0103H165.853C165.582 35.0513 164.527 33.3936 162.718 32.0675C160.91 30.7414 158.77 30.0784 156.389 30.0784C154.008 30.0784 152.08 30.7113 150.301 31.947C148.523 33.2128 147.257 34.9006 146.504 37.0103" fill="#414042"/>
<path d="M200.844 51.9892V60.9102C199.307 61.3321 197.86 61.5732 196.504 61.5732C192.797 61.5732 189.934 60.6088 187.945 58.6197C185.956 56.6606 184.961 53.8276 184.961 50.1206V0H195.027V47.83C195.027 49.2465 195.329 50.3014 195.931 51.0247C196.534 51.748 197.649 52.0796 199.277 52.0796C199.94 52.0796 200.452 52.0796 200.844 51.9892Z" fill="#414042"/>
<path d="M223.99 51.9892V60.9102C222.453 61.3321 221.007 61.5732 219.651 61.5732C215.943 61.5732 213.08 60.6088 211.091 58.6197C209.102 56.6606 208.107 53.8276 208.107 50.1206V0H218.174V47.83C218.174 49.2465 218.475 50.3014 219.078 51.0247C219.681 51.748 220.796 52.0796 222.423 52.0796C223.086 52.0796 223.599 52.0796 223.99 51.9892Z" fill="#414042"/>
<path d="M269.259 41.1996C269.259 46.8054 267.239 51.5974 263.201 55.5757C259.162 59.554 254.28 61.5431 248.583 61.5431C242.887 61.5431 238.005 59.554 233.996 55.5757C229.988 51.5974 227.999 46.8054 227.999 41.1996C227.999 35.5938 229.988 30.8017 233.996 26.8536C238.005 22.9054 242.857 20.9163 248.583 20.9163C254.31 20.9163 259.253 22.8753 263.261 26.7933C267.269 30.7113 269.259 35.5034 269.259 41.1694M259.373 41.1694C259.373 38.2761 258.318 35.8047 256.178 33.695C254.039 31.6155 251.507 30.5606 248.583 30.5606C245.66 30.5606 243.128 31.6155 241.019 33.695C238.909 35.8047 237.884 38.2761 237.884 41.1694C237.884 44.0627 238.939 46.5642 241.019 48.7041C243.128 50.8439 245.63 51.8988 248.583 51.8988C251.537 51.8988 254.129 50.8439 256.239 48.7644C258.348 46.6547 259.373 44.1532 259.373 41.1996" fill="#414042"/>
<path d="M285.383 16.9681C286.769 18.3846 287.492 20.0724 287.492 22.0615C287.492 24.0507 286.799 25.7384 285.383 27.155C283.966 28.5715 282.278 29.2647 280.289 29.2647C278.3 29.2647 276.612 28.5715 275.196 27.155C273.779 25.7686 273.086 24.0507 273.086 22.0615C273.086 20.0724 273.809 18.3545 275.196 16.9681C276.612 15.5516 278.3 14.8584 280.319 14.8584C282.339 14.8584 283.996 15.5516 285.413 16.9681M276.401 26.0097C277.486 27.0947 278.782 27.6673 280.319 27.6673C281.857 27.6673 283.152 27.1248 284.237 26.0097C285.322 24.9247 285.865 23.5986 285.865 22.0615C285.865 20.5245 285.322 19.1984 284.237 18.1134C283.152 17.0284 281.857 16.4557 280.319 16.4557C278.782 16.4557 277.486 16.9982 276.401 18.0832C275.316 19.1682 274.804 20.4943 274.804 22.0314C274.804 23.5685 275.347 24.8946 276.401 25.9796M283.846 26.0097H281.857L280.018 22.8753H279.084V26.0097H277.366V17.8723H280.983C282.821 17.8723 283.755 18.6559 283.755 20.2532C283.755 21.5793 283.152 22.3931 281.917 22.7246L283.846 26.0097ZM279.084 21.3683H280.561C281.043 21.3683 281.404 21.3081 281.646 21.1574C281.887 21.0067 281.977 20.7656 281.977 20.3738C281.977 19.982 281.857 19.7409 281.646 19.5902C281.435 19.4395 281.073 19.3792 280.561 19.3792H279.084V21.3683Z" fill="#414042"/>
<path d="M236.558 82.0976C235.383 80.9222 233.785 80.3195 231.947 80.3195C227.908 80.3195 224.834 83.5142 224.834 87.7336C224.834 91.953 227.908 95.1477 231.947 95.1477C233.785 95.1477 235.383 94.5449 236.558 93.3695V94.8463H239.391V80.6208H236.558V82.0976ZM232.218 92.4352C229.596 92.4352 227.728 90.446 227.728 87.7336C227.728 85.0211 229.626 83.0319 232.218 83.0319C234.81 83.0319 236.709 85.0211 236.709 87.7336C236.709 90.446 234.84 92.4352 232.218 92.4352Z" fill="#414042"/>
<path d="M251.115 80.8017C250.362 80.4702 249.548 80.3195 248.493 80.3195C247.016 80.3195 245.69 80.9222 244.696 81.9771V80.5907H241.893V94.8161H244.726V86.9198C244.726 84.569 246.082 83.0018 248.071 83.0018C248.855 83.0018 249.729 83.2128 250.332 83.5142L250.603 83.6648L251.296 80.8318L251.115 80.7414V80.8017Z" fill="#414042"/>
<path d="M262.869 82.0977C261.694 80.9223 260.096 80.3195 258.258 80.3195C254.189 80.3195 251.145 83.5142 251.145 87.7336C251.145 91.953 254.189 95.1477 258.258 95.1477C260.096 95.1477 261.694 94.5449 262.869 93.3695V94.8463H265.702V73.5082H262.869V82.0977ZM258.529 92.4352C255.907 92.4352 254.039 90.4461 254.039 87.7336C254.039 85.0211 255.937 83.032 258.529 83.032C261.121 83.032 263.02 85.0211 263.02 87.7336C263.02 90.4461 261.121 92.4352 258.529 92.4352Z" fill="#414042"/>
<path d="M190.386 73.5383H187.553V94.8765H190.386V73.5383Z" fill="#414042"/>
<path d="M185.142 73.5383H182.309V94.8765H185.142V73.5383Z" fill="#414042"/>
<path d="M216.154 80.3195C211.875 80.3195 208.65 83.5142 208.65 87.7336C208.65 91.953 211.875 95.1477 216.154 95.1477C220.434 95.1477 223.659 91.953 223.659 87.7336C223.659 83.5142 220.434 80.3195 216.154 80.3195ZM216.154 92.4352C213.472 92.4352 211.543 90.446 211.543 87.7336C211.543 85.0211 213.472 83.0319 216.154 83.0319C218.837 83.0319 220.766 85.0211 220.766 87.7336C220.766 90.446 218.837 92.4352 216.154 92.4352Z" fill="#414042"/>
<path d="M200.362 80.3195C198.493 80.3195 196.926 80.9223 195.75 82.0676V73.5082H192.917V94.8463H195.75V93.3695C196.926 94.5148 198.523 95.1176 200.362 95.1176C204.43 95.1176 207.474 91.9229 207.474 87.7035C207.474 83.4841 204.4 80.2894 200.362 80.2894M200.09 92.4051C197.499 92.4051 195.6 90.416 195.6 87.7035C195.6 84.991 197.499 83.0019 200.09 83.0019C202.682 83.0019 204.581 84.991 204.581 87.7035C204.581 90.416 202.682 92.4051 200.09 92.4051Z" fill="#414042"/>
<path d="M269.198 73.5383C267.721 73.5383 266.576 74.6836 266.576 76.1001C266.576 77.5166 267.721 78.6318 269.198 78.6318C270.675 78.6318 271.79 77.4865 271.79 76.1001C271.79 74.7137 270.615 73.5383 269.198 73.5383ZM269.198 78.029C268.113 78.029 267.239 77.155 267.239 76.07C267.239 74.985 268.083 74.111 269.198 74.111C270.313 74.111 271.127 74.985 271.127 76.07C271.127 77.155 270.253 78.029 269.198 78.029Z" fill="#414042"/>
<path d="M168.475 80.3195C166.245 80.3195 164.406 81.2538 163.351 82.8511C162.327 81.2236 160.488 80.3195 158.258 80.3195C157.203 80.3195 155.365 80.5606 153.978 82.0072V80.6208H151.175V94.8463H154.008V86.8897C154.008 84.6293 155.576 83.0319 157.836 83.0319C160.096 83.0319 161.392 84.4183 161.392 86.8294V94.8463H164.225V86.8897C164.225 84.6293 165.793 83.0319 168.053 83.0319C170.313 83.0319 171.609 84.4183 171.609 86.8294V94.8463H174.442V86.0759C174.442 82.6401 172.031 80.3496 168.475 80.3496" fill="#414042"/>
<path d="M179.867 80.6208H177.034V94.8463H179.867V80.6208Z" fill="#414042"/>
<path d="M270.313 75.6781C270.313 75.2261 269.982 74.9247 269.379 74.9247H268.264V77.2755H268.806V76.4015H268.987L269.68 77.2755H270.343L269.59 76.4015C270.042 76.3412 270.313 76.07 270.313 75.7083M268.806 75.9795V75.4069H269.349C269.59 75.4069 269.741 75.4973 269.741 75.7083C269.741 75.9193 269.59 75.9795 269.349 75.9795H268.806Z" fill="#414042"/>
<path d="M178.421 74.0808C177.366 74.0808 176.522 74.9247 176.522 76.0097C176.522 77.0947 177.336 77.9084 178.421 77.9084C179.506 77.9084 180.35 77.0947 180.35 76.0097C180.35 74.9247 179.506 74.0808 178.421 74.0808Z" fill="#414042"/>
<path d="M122.966 94.0627V95.5094H121.76V82.399H122.966V88.6076C123.689 87.4925 124.744 86.9198 126.1 86.9198C127.306 86.9198 128.33 87.3418 129.144 88.1857C129.988 89.0295 130.38 90.0844 130.38 91.3502C130.38 92.616 129.958 93.6408 129.144 94.4846C128.33 95.3285 127.306 95.7505 126.1 95.7505C124.714 95.7505 123.689 95.208 122.935 94.0928M126.1 94.6353C127.004 94.6353 127.727 94.3339 128.33 93.701C128.903 93.0983 129.204 92.3147 129.204 91.3804C129.204 90.4461 128.903 89.6323 128.33 88.9994C127.727 88.3665 127.004 88.035 126.13 88.035C125.256 88.035 124.503 88.3665 123.9 88.9994C123.297 89.6323 123.026 90.4159 123.026 91.3502C123.026 92.2845 123.327 93.038 123.9 93.6709C124.472 94.3038 125.226 94.6052 126.13 94.6052" fill="#414042"/>
<path d="M134.298 100H133.092L134.599 95.5998L131.344 87.1007H132.61L135.202 93.912L137.553 87.1007H138.788L134.298 100Z" fill="#414042"/>
</g>
<defs>
<clipPath id="clip0_1888_23816">
<rect width="287.492" height="100" fill="white"/>
</clipPath>
</defs>
</svg>
