<svg width="173" height="32" viewBox="0 0 173 32" fill="none" xmlns="http://www.w3.org/2000/svg">
<path d="M97.8906 10.0771C91.4452 10.0771 86.582 14.791 86.582 21.041C86.582 27.291 91.4452 32.0003 97.8906 32.0003C104.35 32.0003 109.222 27.291 109.222 21.041C109.222 14.791 104.35 10.0771 97.8906 10.0771ZM97.8906 28.0225C93.8605 28.0225 90.9333 25.0873 90.9333 21.041C90.9333 17.0038 93.8605 14.0777 97.8906 14.0777C101.921 14.0777 104.848 17.0084 104.848 21.041C104.848 25.0873 101.921 28.0225 97.8906 28.0225Z" fill="#414042"/>
<path d="M168.278 0V12.7058C166.496 10.9821 164.109 10.0769 161.321 10.0769C155.206 10.0769 150.604 14.7907 150.604 21.0407C150.604 27.2907 155.211 32 161.321 32C164.104 32 166.491 31.0993 168.278 29.3847V31.5702H172.564V0H168.278ZM161.735 28.0222C157.807 28.0222 154.95 25.087 154.95 21.0407C154.95 17.0035 157.803 14.0774 161.735 14.0774C165.654 14.0774 168.497 17.0081 168.497 21.0407C168.497 25.087 165.654 28.0222 161.735 28.0222Z" fill="#414042"/>
<path d="M74.1057 10.0769C71.3041 10.0769 68.9167 10.9776 67.1483 12.6875V0H62.8809V31.5702H67.1483V29.3893C68.9167 31.0993 71.3041 31.9954 74.1057 31.9954C80.216 31.9954 84.8279 27.2861 84.8279 21.0361C84.8232 14.7907 80.216 10.0769 74.1057 10.0769ZM73.6915 28.0223C69.773 28.0223 66.9296 25.087 66.9296 21.0407C66.9296 17.0035 69.773 14.0774 73.6915 14.0774C77.6099 14.0774 80.4533 17.0081 80.4533 21.0407C80.4533 25.087 77.6099 28.0223 73.6915 28.0223Z" fill="#414042"/>
<path d="M128.657 10.5069V12.7061C126.875 10.9824 124.488 10.0771 121.7 10.0771C115.59 10.0771 110.982 14.791 110.982 21.041C110.982 27.291 115.59 32.0003 121.7 32.0003C124.483 32.0003 126.87 31.0996 128.657 29.385V31.5705H132.943V10.5069H128.657ZM122.114 28.0225C118.182 28.0225 115.329 25.0873 115.329 21.041C115.329 17.0038 118.182 14.0777 122.114 14.0777C126.033 14.0777 128.871 17.0084 128.871 21.041C128.876 25.0873 126.033 28.0225 122.114 28.0225Z" fill="#414042"/>
<path d="M149.389 14.8504C148.514 14.3932 147.188 14.096 145.996 14.096C142.985 14.096 140.956 16.4186 140.956 19.8797V31.5705H136.693V10.5069H140.914V12.5506C142.394 10.9504 144.391 10.0771 146.629 10.0771C148.225 10.0771 149.435 10.292 150.571 10.7721L150.845 10.8864L149.789 15.0561L149.389 14.8504Z" fill="#414042"/>
<path d="M59.0931 0H54.8262V31.5702H59.0931V0Z" fill="#414042"/>
<path d="M51.192 0H46.9297V31.5702H51.192V0Z" fill="#414042"/>
<path d="M41.0554 6.48312C39.4219 6.48312 38.1934 5.28066 38.1934 3.68958C38.1934 2.08935 39.4545 0.832031 41.0554 0.832031C42.6842 0.832031 43.964 2.08478 43.964 3.68958C43.964 5.2578 42.6842 6.48312 41.0554 6.48312Z" fill="#414042"/>
<path d="M43.2174 10.5068H38.9551V31.5704H43.2174V10.5068Z" fill="#414042"/>
<path d="M35.0566 31.5705H30.7705V19.7059C30.7705 16.1397 28.8252 14.0914 25.428 14.0914C22.0401 14.0914 19.6713 16.4369 19.6713 19.7928V31.5659H15.3852V19.7059C15.3852 16.1397 13.44 14.0914 10.0427 14.0914C6.64087 14.0914 4.26282 16.4369 4.26282 19.7928V31.5659H0V10.5069H4.2442V12.5552C6.3058 10.4201 9.09804 10.0771 10.6757 10.0771C14.0403 10.0771 16.7953 11.4396 18.3403 13.8308C19.9133 11.4396 22.6916 10.0771 26.0609 10.0771C31.4406 10.0771 35.0566 13.4925 35.0566 18.5721V31.5705Z" fill="#414042"/>
</svg>
