<svg width="353" height="100" viewBox="0 0 353 100" fill="none" xmlns="http://www.w3.org/2000/svg">
<g clip-path="url(#clip0_1888_23817)">
<path d="M219.238 22.081C216.197 19.0955 212.153 17.4993 207.37 17.4993C196.948 17.4993 189.095 25.6873 189.095 36.5356C189.095 47.384 196.948 55.572 207.37 55.572C212.123 55.572 216.168 54.0053 219.238 51.0198V54.8034H226.53V18.2383H219.238V22.0514V22.081ZM208.079 48.6846C201.377 48.6846 196.505 43.6004 196.505 36.5652C196.505 29.53 201.377 24.4753 208.079 24.4753C214.78 24.4753 219.593 29.5596 219.593 36.5652C219.593 43.5708 214.751 48.6846 208.079 48.6846Z" fill="#414042"/>
<path d="M256.615 18.7112C254.696 17.8835 252.629 17.4993 249.913 17.4993C246.104 17.4993 242.709 19.0068 240.17 21.7854V18.2383H232.967V54.833H240.229V34.5256C240.229 28.525 243.683 24.4753 248.82 24.4753C250.858 24.4753 253.101 24.9778 254.607 25.7759L255.286 26.1307L257.087 18.8886L256.615 18.6817V18.7112Z" fill="#414042"/>
<path d="M286.787 22.081C283.746 19.0955 279.672 17.4993 274.919 17.4993C264.497 17.4993 256.644 25.6873 256.644 36.5356C256.644 47.384 264.497 55.572 274.919 55.572C279.672 55.572 283.717 54.0053 286.787 51.0198V54.8034H294.079V0H286.787V22.081ZM275.627 48.6846C268.926 48.6846 264.054 43.6003 264.054 36.5652C264.054 29.53 268.926 24.4753 275.627 24.4753C282.329 24.4753 287.141 29.5596 287.141 36.5652C287.141 43.5708 282.3 48.6846 275.627 48.6846Z" fill="#414042"/>
<path d="M100.703 0H93.4404V54.833H100.703V0Z" fill="#414042"/>
<path d="M87.2407 0H79.978V54.833H87.2407V0Z" fill="#414042"/>
<path d="M166.835 17.4993C155.852 17.4993 147.556 25.6873 147.556 36.5356C147.556 47.384 155.852 55.572 166.835 55.572C177.818 55.572 186.143 47.384 186.143 36.5356C186.143 25.6873 177.847 17.4993 166.835 17.4993ZM166.835 48.655C159.956 48.655 154.967 43.5708 154.967 36.5356C154.967 29.5004 159.956 24.4458 166.835 24.4458C173.714 24.4458 178.703 29.53 178.703 36.5356C178.703 43.5412 173.714 48.655 166.835 48.655Z" fill="#414042"/>
<path d="M126.3 17.4993C121.517 17.4993 117.472 19.0659 114.431 22.0219V0H107.169V54.833H114.431V51.0494C117.443 54.0349 121.517 55.572 126.3 55.572C136.721 55.572 144.574 47.384 144.574 36.5356C144.574 25.6873 136.721 17.4993 126.3 17.4993ZM125.591 48.655C118.919 48.655 114.077 43.5708 114.077 36.5356C114.077 29.5004 118.919 24.4458 125.591 24.4458C132.263 24.4458 137.105 29.53 137.105 36.5356C137.105 43.5412 132.263 48.655 125.591 48.655Z" fill="#414042"/>
<path d="M303.084 0.029541C299.305 0.029541 296.353 2.95594 296.353 6.59176C296.353 10.2276 299.305 13.1244 303.084 13.1244C306.863 13.1244 309.756 10.1685 309.756 6.59176C309.756 3.01506 306.774 0.029541 303.084 0.029541ZM303.084 11.5873C300.25 11.5873 298.065 9.3408 298.065 6.59176C298.065 3.84272 300.25 1.56664 303.084 1.56664C305.918 1.56664 308.044 3.78361 308.044 6.59176C308.044 9.39992 305.829 11.5873 303.084 11.5873Z" fill="#414042"/>
<path d="M44.4027 17.4993C38.6457 17.4993 33.922 19.864 31.2354 24.0319C28.6079 19.864 23.9137 17.4993 18.1567 17.4993C15.4701 17.4993 10.7169 18.0905 7.20363 21.815V18.2678H0V54.8625H7.26268V34.4073C7.26268 28.5841 11.3073 24.5049 17.1234 24.5049C22.9394 24.5049 26.2165 28.052 26.2165 34.2595V54.8625H33.5382V34.4073C33.5382 28.5841 37.5829 24.5049 43.3399 24.5049C49.0969 24.5049 52.433 28.052 52.433 34.2595V54.8625H59.7252V32.279C59.7252 23.4703 53.5548 17.5288 44.4027 17.5288" fill="#414042"/>
<path d="M73.6601 18.2383H66.3975V54.833H73.6601V18.2383Z" fill="#414042"/>
<path d="M305.888 5.49805C305.888 4.31567 305.003 3.54712 303.468 3.54712H300.633V9.57727H302.021V7.3603H302.493L304.294 9.57727H305.947L304.028 7.33074C305.209 7.18295 305.888 6.47352 305.888 5.49805ZM302.021 6.23704V4.75906H303.438C304.087 4.75906 304.471 5.0251 304.471 5.52761C304.471 6.03012 304.087 6.2666 303.438 6.2666H302.021V6.23704Z" fill="#414042"/>
<path d="M69.9697 1.44836C67.2241 1.44836 65.0984 3.63577 65.0984 6.41437C65.0984 9.19297 67.1945 11.2621 69.9697 11.2621C72.7449 11.2621 74.9296 9.13385 74.9296 6.41437C74.9296 3.69489 72.7449 1.44836 69.9697 1.44836Z" fill="#414042"/>
<path d="M164.886 93.4673L167.278 95.2705C164.06 98.4333 160.251 100 155.911 100C151.571 100 147.468 98.4038 144.22 95.2113C140.973 92.0189 139.349 88.1171 139.349 83.5058C139.349 78.8945 140.943 75.0517 144.161 71.8889C147.35 68.726 151.276 67.1298 155.852 67.1298C160.428 67.1298 164.503 68.7851 167.78 72.1253L165.034 73.6329C162.495 71.2385 159.454 70.0266 155.941 70.0266C152.428 70.0266 149.121 71.3863 146.493 74.1058C143.836 76.8253 142.537 79.9882 142.537 83.5944C142.537 87.2007 143.866 90.3636 146.553 93.0535C149.21 95.7434 152.369 97.1032 155.97 97.1032C159.306 97.1032 162.288 95.8912 164.886 93.4673Z" fill="#414042"/>
<path d="M191.811 89.329C191.811 92.2554 190.748 94.7679 188.652 96.8371C186.556 98.9358 184.047 99.9704 181.183 99.9704C178.319 99.9704 175.81 98.9358 173.714 96.8666C171.618 94.7975 170.584 92.2849 170.584 89.3881C170.584 86.4912 171.618 83.9787 173.684 81.8504C175.751 79.7221 178.231 78.658 181.153 78.658C184.076 78.658 186.586 79.7221 188.682 81.8208C190.778 83.9491 191.841 86.4321 191.841 89.329M175.78 94.9453C177.256 96.4824 179.087 97.2805 181.242 97.2805C183.397 97.2805 185.228 96.4824 186.704 94.8862C188.15 93.2899 188.889 91.4277 188.889 89.2698C188.889 87.112 188.15 85.1906 186.645 83.6535C185.169 82.1164 183.338 81.3479 181.213 81.3479C179.087 81.3479 177.227 82.146 175.78 83.7422C174.334 85.3384 173.596 87.2007 173.596 89.3881C173.596 91.5755 174.334 93.4377 175.81 94.9748" fill="#414042"/>
<path d="M204.418 97.1623V99.7044C203.709 99.9113 202.971 100 202.233 100C200.757 100 199.576 99.5271 198.69 98.5812C197.805 97.6353 197.391 96.2755 197.391 94.5019V67.6619H200.403V93.0831C200.403 94.6202 200.609 95.7139 200.993 96.3346C201.406 96.9554 202.145 97.251 203.237 97.251C203.739 97.251 204.123 97.251 204.447 97.1623" fill="#414042"/>
<path d="M215.459 97.1623V99.7044C214.751 99.9113 214.013 100 213.275 100C211.798 100 210.618 99.5271 209.732 98.5812C208.846 97.6353 208.433 96.2755 208.433 94.5019V67.6619H211.444V93.0831C211.444 94.6202 211.651 95.7139 212.035 96.3346C212.448 96.9554 213.186 97.251 214.278 97.251C214.78 97.251 215.164 97.251 215.489 97.1623" fill="#414042"/>
<path d="M238.665 90.4522H220.833C221.069 92.3736 221.895 93.9994 223.313 95.3C224.73 96.6302 226.442 97.2805 228.361 97.2805C229.601 97.2805 230.811 96.9849 231.963 96.3641C233.114 95.7434 234.029 94.9453 234.708 93.9698L236.952 95.566C235.978 96.9258 234.738 98.0194 233.232 98.8176C231.727 99.6157 230.132 99.9999 228.42 99.9999C225.497 99.9999 223.017 98.9654 220.921 96.8962C218.825 94.827 217.792 92.3145 217.792 89.3585C217.792 86.4025 218.796 83.9491 220.803 81.8504C222.811 79.7221 225.291 78.6875 228.243 78.6875C231.195 78.6875 233.616 79.7516 235.653 81.8504C237.661 83.9491 238.665 86.4617 238.665 89.3881V90.5113V90.4522ZM220.862 87.7327H235.565C235.24 85.9 234.443 84.3629 233.114 83.151C231.786 81.939 230.162 81.3183 228.243 81.3183C226.324 81.3183 224.759 81.939 223.401 83.151C222.043 84.3629 221.216 85.9 220.862 87.7327Z" fill="#414042"/>
<path d="M259.596 93.4673L261.988 94.827C261.014 96.3937 259.715 97.6647 258.12 98.5811C256.526 99.4974 254.784 99.9704 252.895 99.9704C250.001 99.9704 247.521 98.9358 245.425 96.8666C243.329 94.7975 242.296 92.2849 242.296 89.3881C242.296 86.4912 243.329 83.9787 245.396 81.8504C247.462 79.7221 249.942 78.658 252.895 78.658C254.755 78.658 256.467 79.1309 258.091 80.0473C259.685 80.9636 260.984 82.2347 261.958 83.8013L259.508 85.1611C258.829 84.0082 257.884 83.0919 256.703 82.3825C255.522 81.673 254.253 81.3183 252.865 81.3183C250.71 81.3183 248.909 82.1164 247.462 83.7126C246.016 85.3089 245.278 87.2007 245.278 89.329C245.278 91.4572 246.016 93.3786 247.521 94.9157C248.998 96.4528 250.828 97.2509 253.013 97.2509C254.43 97.2509 255.729 96.8962 256.88 96.2163C258.032 95.5365 258.947 94.5906 259.626 93.4377" fill="#414042"/>
<path d="M275.066 96.8667V99.5862C274.21 99.8818 273.295 100.03 272.321 100.03C268.719 100.03 266.918 98.1969 266.918 94.5315V81.7913H263.7V79.1014H266.918V72.1844H269.929V79.1014H275.598V81.7913H269.929V93.1126C269.929 94.6497 270.136 95.7434 270.52 96.3642C270.933 96.9849 271.671 97.2805 272.764 97.2805C273.561 97.2805 274.328 97.1623 275.096 96.8962" fill="#414042"/>
<path d="M282.772 73.7511C282.418 74.1354 281.916 74.3423 281.355 74.3423C280.794 74.3423 280.292 74.1354 279.938 73.7511C279.554 73.3669 279.377 72.8939 279.377 72.3618C279.377 71.8298 279.554 71.3568 279.938 70.9725C280.292 70.5883 280.794 70.3813 281.355 70.3813C281.916 70.3813 282.388 70.5883 282.772 70.9725C283.126 71.3568 283.333 71.8298 283.333 72.3618C283.333 72.8939 283.156 73.3669 282.772 73.7511ZM282.86 99.4384H279.849V79.0423H282.86V99.4384Z" fill="#414042"/>
<path d="M309.668 89.329C309.668 92.2554 308.605 94.7679 306.509 96.8371C304.412 98.9358 301.903 99.9704 299.039 99.9704C296.175 99.9704 293.666 98.9358 291.57 96.8666C289.474 94.7975 288.44 92.2849 288.44 89.3881C288.44 86.4912 289.474 83.9787 291.54 81.8504C293.607 79.7221 296.087 78.658 299.01 78.658C301.932 78.658 304.442 79.7221 306.538 81.8208C308.634 83.9491 309.697 86.4321 309.697 89.329M293.636 94.9453C295.113 96.4824 296.943 97.2805 299.098 97.2805C301.253 97.2805 303.084 96.4824 304.56 94.8862C306.007 93.2899 306.745 91.4277 306.745 89.2698C306.745 87.112 306.007 85.1906 304.501 83.6535C303.025 82.1164 301.194 81.3479 299.069 81.3479C296.943 81.3479 295.083 82.146 293.636 83.7422C292.19 85.3384 291.452 87.2007 291.452 89.3881C291.452 91.5755 292.19 93.4377 293.666 94.9748" fill="#414042"/>
<path d="M333.138 99.4383H330.127V88.9742C330.127 86.5799 329.714 84.6881 328.887 83.3579C328.06 82.0277 326.555 81.3774 324.399 81.3774C322.097 81.3774 320.473 82.1164 319.587 83.5944C318.702 85.0724 318.229 87.0824 318.229 89.6245V99.4679H315.218V79.0718H318.229V81.939C319.735 79.7812 321.89 78.6875 324.695 78.6875C327.352 78.6875 329.418 79.4856 330.924 81.0818C332.4 82.678 333.168 85.0132 333.168 88.1466V99.4679L333.138 99.4383Z" fill="#414042"/>
<path d="M338.069 97.5465L339.751 95.1818C341.523 96.6006 343.442 97.2805 345.538 97.2805C346.807 97.2805 347.87 97.0145 348.638 96.4528C349.435 95.9208 349.819 95.1522 349.819 94.1767C349.819 93.29 349.465 92.5805 348.697 92.0485C347.959 91.5164 347.044 91.1025 345.981 90.8365C344.918 90.5705 343.826 90.2453 342.763 89.9202C341.7 89.5655 340.785 88.9743 340.047 88.1466C339.309 87.3189 338.925 86.2252 338.925 84.8359C338.925 82.9737 339.545 81.4661 340.844 80.3429C342.113 79.19 343.767 78.6284 345.804 78.6284C348.136 78.6284 350.232 79.3083 352.122 80.6385L350.527 83.0032C349.14 81.88 347.575 81.3183 345.774 81.3183C344.623 81.3183 343.708 81.6139 342.999 82.2051C342.29 82.7963 341.936 83.5353 341.936 84.4221C341.936 85.1315 342.202 85.7523 342.763 86.2252C343.294 86.6982 343.973 87.0529 344.77 87.2894C345.567 87.5258 346.453 87.7919 347.398 88.117C348.343 88.4422 349.199 88.7673 350.025 89.1221C350.823 89.4768 351.502 90.068 352.033 90.8661C352.564 91.6642 352.86 92.6692 352.86 93.822C352.86 95.773 352.181 97.2805 350.823 98.3446C349.465 99.4088 347.723 99.9409 345.627 99.9409C342.763 99.9409 340.253 99.1132 338.128 97.4874" fill="#414042"/>
</g>
<defs>
<clipPath id="clip0_1888_23817">
<rect width="352.83" height="100" fill="white"/>
</clipPath>
</defs>
</svg>
