<svg width="24" height="24" viewBox="0 0 24 24" fill="none" xmlns="http://www.w3.org/2000/svg">
<path fill-rule="evenodd" clip-rule="evenodd" d="M9.66408 8.39999C9.90474 7.31811 10.8015 6.59999 11.9999 6.59999C13.1983 6.59999 14.0951 7.31811 14.3357 8.39999H9.66408ZM8.45581 8.39999C8.76337 6.75277 10.2975 5.39999 11.9999 5.39999C13.7023 5.39999 15.2364 6.75277 15.544 8.39999H17.9999C18.3313 8.39999 18.5999 8.66862 18.5999 8.99999V16.2C18.5999 17.5255 17.5254 18.6 16.1999 18.6H7.7999C6.47442 18.6 5.3999 17.5255 5.3999 16.2V8.99999C5.3999 8.66862 5.66853 8.39999 5.9999 8.39999H8.45581ZM6.5999 16.2V9.59999H17.3999V16.2C17.3999 17.0284 17.0283 17.4 16.1999 17.4H7.7999C6.97148 17.4 6.5999 17.0284 6.5999 16.2Z" fill="#414042"/>
</svg>
