<svg width="32" height="32" viewBox="0 0 32 32" fill="none" xmlns="http://www.w3.org/2000/svg">
<path fill-rule="evenodd" clip-rule="evenodd" d="M12.8858 11.2C13.2066 9.75744 14.4023 8.79995 16.0002 8.79995C17.5981 8.79995 18.7937 9.75744 19.1146 11.2H12.8858ZM11.2747 11.2C11.6848 9.00366 13.7303 7.19995 16.0002 7.19995C18.2701 7.19995 20.3156 9.00366 20.7257 11.2H24.0002C24.442 11.2 24.8002 11.5581 24.8002 12V21.6C24.8002 23.3673 23.3675 24.7999 21.6002 24.7999H10.4002C8.63288 24.7999 7.2002 23.3673 7.2002 21.6V12C7.2002 11.5581 7.55837 11.2 8.0002 11.2H11.2747ZM8.8002 21.6V12.8H23.2002V21.6C23.2002 22.7045 22.7048 23.2 21.6002 23.2H10.4002C9.29563 23.2 8.8002 22.7045 8.8002 21.6Z" fill="#414042"/>
</svg>
